<svg xmlns="http://www.w3.org/2000/svg">
    <symbol id="icon-heart" viewBox="0 0 32 32">
    <title>heart</title>
    <path fill="#004373" style="fill: var(--color1, #004373)" d="M16 26.724c-0.173 0.001-0.345-0.032-0.505-0.098s-0.306-0.163-0.428-0.286l-8.893-8.9c-0.799-0.801-1.396-1.781-1.741-2.859s-0.428-2.223-0.243-3.339 0.634-2.173 1.309-3.081c0.675-0.909 1.557-1.643 2.572-2.143 1.281-0.641 2.727-0.874 4.144-0.67s2.738 0.837 3.785 1.814c1.048-0.976 2.369-1.608 3.786-1.812s2.863 0.029 4.144 0.668c1.015 0.5 1.897 1.234 2.572 2.143s1.124 1.965 1.309 3.081c0.185 1.117 0.102 2.261-0.243 3.339s-0.942 2.058-1.741 2.859l-8.901 8.9c-0.121 0.122-0.265 0.219-0.424 0.285s-0.329 0.1-0.501 0.099zM11.14 6.617c-0.854-0.005-1.697 0.195-2.459 0.583-0.837 0.415-1.562 1.024-2.117 1.776s-0.92 1.626-1.069 2.548c-0.139 0.898-0.065 1.816 0.217 2.68s0.762 1.649 1.403 2.293l8.9 8.9 8.868-8.9c0.641-0.644 1.122-1.429 1.403-2.293s0.356-1.782 0.217-2.68c-0.148-0.922-0.515-1.796-1.069-2.548s-1.28-1.361-2.117-1.776c-1.085-0.524-2.306-0.696-3.494-0.493s-2.282 0.773-3.13 1.629c-0.185 0.182-0.435 0.284-0.695 0.284s-0.509-0.102-0.695-0.284c-1.11-1.095-2.606-1.712-4.165-1.719z"></path>
    </symbol>

    <symbol id="icon-share" viewBox="0 0 32 32">
    <title>share</title>
    <path fill="#004373" style="fill: var(--color1, #004373)" d="M26.12 16l-6.12-6.12v3.28l-1.147 0.173c-5.747 0.813-9.64 3.827-11.867 8.44 3.093-2.187 6.933-3.24 11.68-3.24h1.333v3.587zM17.333 19.893c-5.96 0.28-10.227 2.427-13.333 6.773 1.333-6.667 5.333-13.333 14.667-14.667v-5.333l9.333 9.333-9.333 9.333v-5.467c-0.44 0-0.88 0.013-1.333 0.027z"></path>
    </symbol>

    <symbol id="icon-comment" viewBox="0 0 32 32">
    <title>comment</title>
    <path fill="none" stroke="#004373" style="stroke: var(--color1, #004373)" stroke-linejoin="round" stroke-linecap="round" stroke-miterlimit="4" stroke-width="1.4545" d="M16 28c2.617-0.001 5.162-0.857 7.248-2.438s3.597-3.801 4.304-6.321c0.707-2.52 0.57-5.202-0.389-7.637s-2.688-4.49-4.923-5.852-4.854-1.955-7.458-1.69c-2.604 0.265-5.049 1.374-6.964 3.158s-3.194 4.145-3.643 6.724c-0.448 2.579-0.042 5.233 1.159 7.559l-1.333 6.497 6.497-1.333c1.648 0.852 3.52 1.333 5.503 1.333z"></path>
    <path fill="none" stroke="#004373" style="stroke: var(--color1, #004373)" stroke-linejoin="round" stroke-linecap="butt" stroke-miterlimit="4" stroke-width="2.1818" d="M10 16h0.013v0.013h-0.013v-0.013zM16 16h0.013v0.013h-0.013v-0.013zM22 16h0.013v0.013h-0.013v-0.013z"></path>
    </symbol>

    <symbol id="icon-save" viewBox="0 0 32 32">
    <title>save</title>
    <path fill="#004373" style="fill: var(--color1, #004373)" d="M8 26v-18.513c0-0.613 0.206-1.125 0.617-1.536s0.923-0.617 1.536-0.617h11.693c0.613 0 1.125 0.206 1.536 0.617s0.617 0.923 0.617 1.536v18.513l-8-3.436-8 3.436zM9.333 23.933l6.667-2.867 6.667 2.867v-16.447c0-0.204-0.085-0.392-0.256-0.564s-0.36-0.256-0.564-0.256h-11.693c-0.204 0-0.392 0.085-0.564 0.256s-0.256 0.36-0.256 0.564v16.447z"></path>
    </symbol>
</svg>
