<svg width="21" height="21" viewBox="0 0 21 21" fill="none" xmlns="http://www.w3.org/2000/svg">
<path d="M17.0625 4.26586C16.0099 4.26522 14.9713 4.50718 14.0273 4.97297C12.8625 2.80242 10.7461 1.72207 10.6485 1.67531C10.6029 1.6525 10.5526 1.64062 10.5016 1.64062C10.4507 1.64062 10.4004 1.6525 10.3548 1.67531C10.2613 1.72207 8.13996 2.80242 6.97594 4.97297C6.031 4.50669 4.99122 4.26471 3.9375 4.26586C3.85048 4.26586 3.76702 4.30043 3.70548 4.36197C3.64395 4.4235 3.60938 4.50696 3.60938 4.59398V7.87523C3.61148 9.64527 4.29385 11.3468 5.51533 12.6278C6.73681 13.9088 8.40394 14.6714 10.1719 14.7577V18.5007L6.70934 16.7691C6.67077 16.7498 6.62878 16.7383 6.58578 16.7352C6.54277 16.7322 6.49958 16.7376 6.45867 16.7512C6.41777 16.7649 6.37995 16.7864 6.34737 16.8147C6.3148 16.8429 6.28811 16.8773 6.26883 16.9159C6.24955 16.9545 6.23805 16.9964 6.23499 17.0395C6.23193 17.0825 6.23738 17.1257 6.25101 17.1666C6.26465 17.2075 6.28621 17.2453 6.31446 17.2779C6.34271 17.3104 6.3771 17.3371 6.41566 17.3564L10.3532 19.3252C10.3988 19.348 10.449 19.3598 10.5 19.3598C10.551 19.3598 10.6012 19.348 10.6468 19.3252L14.5843 17.3564C14.6229 17.3371 14.6573 17.3104 14.6855 17.2779C14.7138 17.2453 14.7354 17.2075 14.749 17.1666C14.7626 17.1257 14.7681 17.0825 14.765 17.0395C14.762 16.9964 14.7505 16.9545 14.7312 16.9159C14.7119 16.8773 14.6852 16.8429 14.6526 16.8147C14.6201 16.7864 14.5822 16.7649 14.5413 16.7512C14.5004 16.7376 14.4572 16.7322 14.4142 16.7352C14.3712 16.7383 14.3292 16.7498 14.2907 16.7691L10.8281 18.5007V14.7577C12.5961 14.6714 14.2632 13.9088 15.4847 12.6278C16.7062 11.3468 17.3885 9.64527 17.3906 7.87523V4.59398C17.3906 4.50696 17.3561 4.4235 17.2945 4.36197C17.233 4.30043 17.1495 4.26586 17.0625 4.26586ZM10.5 2.34305C10.9848 2.61949 12.5508 3.61043 13.4531 5.29043C12.0525 6.15536 11.0056 7.49073 10.5 9.05731C9.99438 7.49073 8.94749 6.15536 7.54688 5.29043C8.44922 3.61535 10.016 2.62031 10.5 2.34305ZM4.26562 7.87523V4.93031C5.85938 5.0165 7.35961 5.7098 8.45807 6.86776C9.55653 8.02572 10.1698 9.5604 10.1719 11.1565V14.1014C8.57812 14.0152 7.07789 13.3219 5.97943 12.164C4.88097 11.006 4.2677 9.47132 4.26562 7.87523ZM16.7344 7.87523C16.7323 9.47132 16.119 11.006 15.0206 12.164C13.9221 13.3219 12.4219 14.0152 10.8281 14.1014V11.1565C10.8302 9.5604 11.4435 8.02572 12.5419 6.86776C13.6404 5.7098 15.1406 5.0165 16.7344 4.93031V7.87523Z" fill="#004373"/>
</svg>
