<svg width="260" height="64" viewBox="0 0 260 64" fill="none" xmlns="http://www.w3.org/2000/svg">
<path d="M260 63H0V65H260V63Z" fill="#EBF6FB" mask="url(#path-1-inside-1_9_464)"/>
<path d="M13.0002 31.84C8.11216 31.84 4.16016 27.888 4.16016 23C4.16016 18.112 8.11216 14.16 13.0002 14.16C17.8882 14.16 21.8402 18.112 21.8402 23C21.8402 27.888 17.8882 31.84 13.0002 31.84ZM13.0002 15.2C8.68416 15.2 5.20016 18.684 5.20016 23C5.20016 27.316 8.68416 30.8 13.0002 30.8C17.3162 30.8 20.8002 27.316 20.8002 23C20.8002 18.684 17.3162 15.2 13.0002 15.2Z" fill="#004373"/>
<path d="M10.2959 20.192C10.4519 19.776 10.6079 19.464 10.9199 19.204C11.1799 18.944 11.4919 18.736 11.9079 18.58C12.3239 18.424 12.7399 18.372 13.2079 18.372C13.5719 18.372 13.9359 18.424 14.2479 18.528C14.5599 18.632 14.8719 18.788 15.1319 18.996C15.3919 19.204 15.5999 19.464 15.7039 19.776C15.8599 20.088 15.9119 20.452 15.9119 20.816C15.9119 21.336 15.8079 21.752 15.5999 22.116C15.3919 22.48 15.0799 22.792 14.7679 23.156L14.0919 23.832C13.9359 23.988 13.7799 24.144 13.7279 24.3C13.6239 24.456 13.5719 24.664 13.5719 24.872C13.5199 25.08 13.5199 25.236 13.5199 25.652H12.6879C12.6879 25.236 12.6879 25.08 12.7399 24.768C12.7919 24.508 12.8959 24.248 12.9999 23.988C13.1039 23.78 13.2599 23.572 13.4679 23.364C13.6759 23.156 13.9359 22.948 14.1959 22.636C14.4559 22.376 14.6639 22.116 14.8199 21.856C14.9759 21.596 15.0799 21.232 15.0799 20.92C15.0799 20.66 15.0279 20.4 14.9239 20.192C14.8199 19.984 14.6639 19.776 14.5079 19.62C14.3519 19.464 14.1439 19.36 13.8839 19.256C13.6239 19.152 13.4159 19.1 13.1559 19.1C12.7919 19.1 12.4799 19.152 12.2199 19.308C11.9599 19.412 11.6999 19.62 11.5439 19.828C11.3879 20.036 11.2319 20.296 11.1279 20.608C11.0239 20.92 10.9199 21.076 10.9199 21.44H10.0879C10.0879 20.972 10.1399 20.608 10.2959 20.192ZM13.5199 26.64V27.68H12.4799V26.64H13.5199Z" fill="#004373"/>
<path d="M41.6 21.864H39.04V27H37.888V15.8H39.04V20.824H41.6L45.392 15.8H46.672L42.512 21.24L46.912 27H45.552L41.6 21.864ZM56.014 18.584V27H54.926V25.336C54.5847 25.9013 54.1313 26.3333 53.566 26.632C53.0113 26.9307 52.382 27.08 51.678 27.08C50.8887 27.08 50.174 26.8987 49.534 26.536C48.894 26.1733 48.3927 25.6667 48.03 25.016C47.6673 24.3653 47.486 23.624 47.486 22.792C47.486 21.96 47.6673 21.2187 48.03 20.568C48.3927 19.9173 48.894 19.416 49.534 19.064C50.174 18.7013 50.8887 18.52 51.678 18.52C52.3607 18.52 52.974 18.664 53.518 18.952C54.0727 19.2293 54.526 19.64 54.878 20.184V18.584H56.014ZM51.774 26.072C52.3607 26.072 52.8887 25.9387 53.358 25.672C53.838 25.3947 54.2113 25.0053 54.478 24.504C54.7553 24.0027 54.894 23.432 54.894 22.792C54.894 22.152 54.7553 21.5813 54.478 21.08C54.2113 20.5787 53.838 20.1947 53.358 19.928C52.8887 19.6507 52.3607 19.512 51.774 19.512C51.1767 19.512 50.638 19.6507 50.158 19.928C49.6887 20.1947 49.3153 20.5787 49.038 21.08C48.7713 21.5813 48.638 22.152 48.638 22.792C48.638 23.432 48.7713 24.0027 49.038 24.504C49.3153 25.0053 49.6887 25.3947 50.158 25.672C50.638 25.9387 51.1767 26.072 51.774 26.072ZM62.2658 23.256H60.3458V27H59.2098V18.584H60.3458V22.28H62.2818L65.2418 18.584H66.4738L63.1618 22.664L66.7138 27H65.3698L62.2658 23.256ZM78.0541 22.648C79.1955 22.9147 79.7661 23.6027 79.7661 24.712C79.7661 25.448 79.4941 26.0133 78.9501 26.408C78.4061 26.8027 77.5955 27 76.5181 27H72.6941V18.584H76.4061C77.3661 18.584 78.1181 18.7707 78.6621 19.144C79.2061 19.5173 79.4781 20.0507 79.4781 20.744C79.4781 21.2027 79.3501 21.5973 79.0941 21.928C78.8488 22.248 78.5021 22.488 78.0541 22.648ZM73.7981 22.328H76.3261C76.9768 22.328 77.4728 22.2053 77.8141 21.96C78.1661 21.7147 78.3421 21.3573 78.3421 20.888C78.3421 20.4187 78.1661 20.0667 77.8141 19.832C77.4728 19.5973 76.9768 19.48 76.3261 19.48H73.7981V22.328ZM76.4701 26.104C77.1955 26.104 77.7395 25.9867 78.1021 25.752C78.4648 25.5173 78.6461 25.1493 78.6461 24.648C78.6461 24.1467 78.4808 23.7787 78.1501 23.544C77.8195 23.2987 77.2968 23.176 76.5821 23.176H73.7981V26.104H76.4701ZM85.7725 27.176C84.6205 27.176 83.7352 26.8933 83.1165 26.328C82.5085 25.752 82.2045 24.9413 82.2045 23.896V18.584H83.3405V22.088C83.5965 21.7787 83.9538 21.5227 84.4125 21.32C84.8712 21.1173 85.4045 21.016 86.0125 21.016C87.0365 21.016 87.8312 21.2827 88.3965 21.816C88.9725 22.3387 89.2605 23.0533 89.2605 23.96C89.2605 24.5893 89.1165 25.1493 88.8285 25.64C88.5512 26.12 88.1458 26.4987 87.6125 26.776C87.0898 27.0427 86.4765 27.176 85.7725 27.176ZM90.6365 18.584H91.7725V27H90.6365V18.584ZM85.8045 26.296C86.5298 26.296 87.0952 26.0827 87.5005 25.656C87.9058 25.2187 88.1085 24.664 88.1085 23.992C88.1085 23.3627 87.9005 22.856 87.4845 22.472C87.0685 22.0773 86.4818 21.88 85.7245 21.88C85.1698 21.88 84.6845 21.9973 84.2685 22.232C83.8632 22.4667 83.5538 22.792 83.3405 23.208V23.976C83.3405 24.7013 83.5485 25.272 83.9645 25.688C84.3912 26.0933 85.0045 26.296 85.8045 26.296ZM99.1941 18.584H100.33V22.312H105.626V18.584H106.762V27H105.626V23.288H100.33V27H99.1941V18.584ZM117.639 18.584V27H116.551V25.336C116.21 25.9013 115.756 26.3333 115.191 26.632C114.636 26.9307 114.007 27.08 113.303 27.08C112.514 27.08 111.799 26.8987 111.159 26.536C110.519 26.1733 110.018 25.6667 109.655 25.016C109.292 24.3653 109.111 23.624 109.111 22.792C109.111 21.96 109.292 21.2187 109.655 20.568C110.018 19.9173 110.519 19.416 111.159 19.064C111.799 18.7013 112.514 18.52 113.303 18.52C113.986 18.52 114.599 18.664 115.143 18.952C115.698 19.2293 116.151 19.64 116.503 20.184V18.584H117.639ZM113.399 26.072C113.986 26.072 114.514 25.9387 114.983 25.672C115.463 25.3947 115.836 25.0053 116.103 24.504C116.38 24.0027 116.519 23.432 116.519 22.792C116.519 22.152 116.38 21.5813 116.103 21.08C115.836 20.5787 115.463 20.1947 114.983 19.928C114.514 19.6507 113.986 19.512 113.399 19.512C112.802 19.512 112.263 19.6507 111.783 19.928C111.314 20.1947 110.94 20.5787 110.663 21.08C110.396 21.5813 110.263 22.152 110.263 22.792C110.263 23.432 110.396 24.0027 110.663 24.504C110.94 25.0053 111.314 25.3947 111.783 25.672C112.263 25.9387 112.802 26.072 113.399 26.072ZM124.915 18.792C125.693 18.792 126.387 18.968 126.995 19.32C127.613 19.6613 128.093 20.1467 128.435 20.776C128.776 21.3947 128.947 22.104 128.947 22.904C128.947 23.7253 128.765 24.456 128.403 25.096C128.051 25.7253 127.555 26.216 126.915 26.568C126.275 26.92 125.539 27.096 124.707 27.096C123.309 27.096 122.227 26.6053 121.459 25.624C120.691 24.6427 120.307 23.288 120.307 21.56C120.307 19.7573 120.648 18.376 121.331 17.416C122.024 16.456 123.101 15.8053 124.563 15.464L128.339 14.6L128.531 15.64L124.979 16.456C123.773 16.7227 122.888 17.1973 122.323 17.88C121.757 18.552 121.448 19.5493 121.395 20.872C121.736 20.2213 122.211 19.7147 122.819 19.352C123.427 18.9787 124.125 18.792 124.915 18.792ZM124.739 26.152C125.325 26.152 125.848 26.0187 126.307 25.752C126.776 25.4747 127.139 25.0907 127.395 24.6C127.661 24.1093 127.795 23.5547 127.795 22.936C127.795 22.3173 127.667 21.7733 127.411 21.304C127.155 20.8347 126.792 20.472 126.323 20.216C125.864 19.9493 125.336 19.816 124.739 19.816C124.141 19.816 123.608 19.9493 123.139 20.216C122.68 20.472 122.317 20.8347 122.051 21.304C121.795 21.7733 121.667 22.3173 121.667 22.936C121.667 23.5547 121.795 24.1093 122.051 24.6C122.317 25.0907 122.685 25.4747 123.155 25.752C123.624 26.0187 124.152 26.152 124.739 26.152ZM138.79 18.584V27H137.702V25.464C137.403 25.976 136.992 26.376 136.47 26.664C135.947 26.9413 135.35 27.08 134.678 27.08C133.568 27.08 132.694 26.776 132.054 26.168C131.424 25.5493 131.11 24.648 131.11 23.464V18.584H132.246V23.352C132.246 24.2373 132.464 24.9093 132.902 25.368C133.339 25.8267 133.968 26.056 134.79 26.056C135.675 26.056 136.374 25.7893 136.886 25.256C137.398 24.712 137.654 23.96 137.654 23V18.584H138.79ZM145.894 18.52C146.716 18.52 147.446 18.7013 148.086 19.064C148.726 19.4267 149.222 19.9333 149.574 20.584C149.937 21.2347 150.118 21.976 150.118 22.808C150.118 23.64 149.942 24.3813 149.59 25.032C149.238 25.672 148.748 26.1733 148.118 26.536C147.5 26.8987 146.79 27.08 145.99 27.08C145.286 27.08 144.657 26.9413 144.102 26.664C143.558 26.376 143.116 25.9653 142.774 25.432V30.104H141.638V22.824C141.638 21.9813 141.814 21.2347 142.166 20.584C142.529 19.9333 143.03 19.4267 143.67 19.064C144.321 18.7013 145.062 18.52 145.894 18.52ZM145.862 26.088C146.46 26.088 146.998 25.9493 147.478 25.672C147.958 25.3947 148.332 25.0053 148.598 24.504C148.865 24.0027 148.998 23.4373 148.998 22.808C148.998 22.1787 148.865 21.6133 148.598 21.112C148.332 20.6107 147.958 20.2213 147.478 19.944C146.998 19.656 146.46 19.512 145.862 19.512C145.265 19.512 144.726 19.6507 144.246 19.928C143.777 20.2053 143.409 20.5947 143.142 21.096C142.886 21.5867 142.758 22.152 142.758 22.792C142.758 23.432 142.886 24.0027 143.142 24.504C143.409 25.0053 143.777 25.3947 144.246 25.672C144.726 25.9493 145.265 26.088 145.862 26.088ZM160.217 18.584V27H159.129V25.336C158.788 25.9013 158.334 26.3333 157.769 26.632C157.214 26.9307 156.585 27.08 155.881 27.08C155.092 27.08 154.377 26.8987 153.737 26.536C153.097 26.1733 152.596 25.6667 152.233 25.016C151.87 24.3653 151.689 23.624 151.689 22.792C151.689 21.96 151.87 21.2187 152.233 20.568C152.596 19.9173 153.097 19.416 153.737 19.064C154.377 18.7013 155.092 18.52 155.881 18.52C156.564 18.52 157.177 18.664 157.721 18.952C158.276 19.2293 158.729 19.64 159.081 20.184V18.584H160.217ZM155.977 26.072C156.564 26.072 157.092 25.9387 157.561 25.672C158.041 25.3947 158.414 25.0053 158.681 24.504C158.958 24.0027 159.097 23.432 159.097 22.792C159.097 22.152 158.958 21.5813 158.681 21.08C158.414 20.5787 158.041 20.1947 157.561 19.928C157.092 19.6507 156.564 19.512 155.977 19.512C155.38 19.512 154.841 19.6507 154.361 19.928C153.892 20.1947 153.518 20.5787 153.241 21.08C152.974 21.5813 152.841 22.152 152.841 22.792C152.841 23.432 152.974 24.0027 153.241 24.504C153.518 25.0053 153.892 25.3947 154.361 25.672C154.841 25.9387 155.38 26.072 155.977 26.072ZM166.981 26.072C167.504 26.072 167.984 25.9813 168.421 25.8C168.869 25.608 169.248 25.3307 169.557 24.968L170.197 25.704C169.824 26.152 169.36 26.4933 168.805 26.728C168.25 26.9627 167.637 27.08 166.965 27.08C166.101 27.08 165.333 26.8987 164.661 26.536C163.989 26.1627 163.466 25.6507 163.093 25C162.72 24.3493 162.533 23.6133 162.533 22.792C162.533 21.9707 162.709 21.2347 163.061 20.584C163.424 19.9333 163.92 19.4267 164.549 19.064C165.178 18.7013 165.893 18.52 166.693 18.52C167.44 18.52 168.112 18.6907 168.709 19.032C169.317 19.3733 169.797 19.848 170.149 20.456C170.512 21.064 170.704 21.7573 170.725 22.536L163.813 23.88C164.026 24.5627 164.41 25.1013 164.965 25.496C165.53 25.88 166.202 26.072 166.981 26.072ZM166.693 19.496C166.106 19.496 165.578 19.6347 165.109 19.912C164.65 20.1787 164.288 20.5573 164.021 21.048C163.765 21.528 163.637 22.0827 163.637 22.712C163.637 22.872 163.642 22.9893 163.653 23.064L169.589 21.912C169.461 21.208 169.136 20.632 168.613 20.184C168.09 19.7253 167.45 19.496 166.693 19.496ZM183.565 18.52C184.621 18.52 185.448 18.824 186.045 19.432C186.653 20.04 186.957 20.936 186.957 22.12V27H185.821V22.232C185.821 21.3573 185.608 20.6907 185.181 20.232C184.765 19.7733 184.173 19.544 183.405 19.544C182.53 19.544 181.842 19.816 181.341 20.36C180.84 20.8933 180.589 21.6347 180.589 22.584V27H179.453V22.232C179.453 21.3573 179.24 20.6907 178.813 20.232C178.397 19.7733 177.8 19.544 177.021 19.544C176.157 19.544 175.469 19.816 174.957 20.36C174.456 20.8933 174.205 21.6347 174.205 22.584V27H173.069V18.584H174.157V20.12C174.456 19.608 174.872 19.2133 175.405 18.936C175.938 18.6587 176.552 18.52 177.245 18.52C177.949 18.52 178.557 18.6693 179.069 18.968C179.592 19.2667 179.981 19.7093 180.237 20.296C180.546 19.7413 180.989 19.3093 181.565 19C182.152 18.68 182.818 18.52 183.565 18.52ZM193.497 26.072C194.019 26.072 194.499 25.9813 194.937 25.8C195.385 25.608 195.763 25.3307 196.073 24.968L196.713 25.704C196.339 26.152 195.875 26.4933 195.321 26.728C194.766 26.9627 194.153 27.08 193.481 27.08C192.617 27.08 191.849 26.8987 191.177 26.536C190.505 26.1627 189.982 25.6507 189.609 25C189.235 24.3493 189.049 23.6133 189.049 22.792C189.049 21.9707 189.225 21.2347 189.577 20.584C189.939 19.9333 190.435 19.4267 191.065 19.064C191.694 18.7013 192.409 18.52 193.209 18.52C193.955 18.52 194.627 18.6907 195.225 19.032C195.833 19.3733 196.313 19.848 196.665 20.456C197.027 21.064 197.219 21.7573 197.241 22.536L190.329 23.88C190.542 24.5627 190.926 25.1013 191.481 25.496C192.046 25.88 192.718 26.072 193.497 26.072ZM193.209 19.496C192.622 19.496 192.094 19.6347 191.625 19.912C191.166 20.1787 190.803 20.5573 190.537 21.048C190.281 21.528 190.153 22.0827 190.153 22.712C190.153 22.872 190.158 22.9893 190.169 23.064L196.105 21.912C195.977 21.208 195.651 20.632 195.129 20.184C194.606 19.7253 193.966 19.496 193.209 19.496ZM203.105 27.08C202.273 27.08 201.526 26.8987 200.865 26.536C200.214 26.1733 199.702 25.6667 199.329 25.016C198.955 24.3547 198.769 23.6133 198.769 22.792C198.769 21.9707 198.955 21.2347 199.329 20.584C199.702 19.9333 200.214 19.4267 200.865 19.064C201.526 18.7013 202.273 18.52 203.105 18.52C203.83 18.52 204.475 18.664 205.041 18.952C205.617 19.2293 206.07 19.64 206.401 20.184L205.553 20.76C205.275 20.344 204.923 20.0347 204.497 19.832C204.07 19.6187 203.606 19.512 203.105 19.512C202.497 19.512 201.947 19.6507 201.457 19.928C200.977 20.1947 200.598 20.5787 200.321 21.08C200.054 21.5813 199.921 22.152 199.921 22.792C199.921 23.4427 200.054 24.0187 200.321 24.52C200.598 25.0107 200.977 25.3947 201.457 25.672C201.947 25.9387 202.497 26.072 203.105 26.072C203.606 26.072 204.07 25.9707 204.497 25.768C204.923 25.5653 205.275 25.256 205.553 24.84L206.401 25.416C206.07 25.96 205.617 26.376 205.041 26.664C204.465 26.9413 203.819 27.08 203.105 27.08ZM211.992 27.176C210.84 27.176 209.95 26.888 209.32 26.312C208.691 25.736 208.376 24.9307 208.376 23.896V18.584H209.512V22.088C209.79 21.7573 210.168 21.496 210.648 21.304C211.139 21.112 211.683 21.016 212.28 21.016C213.326 21.016 214.136 21.2827 214.712 21.816C215.299 22.3493 215.592 23.064 215.592 23.96C215.592 24.9307 215.272 25.7093 214.632 26.296C213.992 26.8827 213.112 27.176 211.992 27.176ZM212.008 26.296C212.766 26.296 213.358 26.0827 213.784 25.656C214.222 25.2293 214.44 24.6747 214.44 23.992C214.44 23.352 214.227 22.84 213.8 22.456C213.374 22.072 212.771 21.88 211.992 21.88C211.416 21.88 210.91 21.9973 210.472 22.232C210.046 22.4667 209.726 22.792 209.512 23.208V23.976C209.512 24.7013 209.731 25.272 210.168 25.688C210.616 26.0933 211.23 26.296 212.008 26.296ZM41.488 40.52C42.3093 40.52 43.04 40.7013 43.68 41.064C44.32 41.4267 44.816 41.9333 45.168 42.584C45.5307 43.2347 45.712 43.976 45.712 44.808C45.712 45.64 45.536 46.3813 45.184 47.032C44.832 47.672 44.3413 48.1733 43.712 48.536C43.0933 48.8987 42.384 49.08 41.584 49.08C40.88 49.08 40.2507 48.9413 39.696 48.664C39.152 48.376 38.7093 47.9653 38.368 47.432V52.104H37.232V44.824C37.232 43.9813 37.408 43.2347 37.76 42.584C38.1227 41.9333 38.624 41.4267 39.264 41.064C39.9147 40.7013 40.656 40.52 41.488 40.52ZM41.456 48.088C42.0533 48.088 42.592 47.9493 43.072 47.672C43.552 47.3947 43.9253 47.0053 44.192 46.504C44.4587 46.0027 44.592 45.4373 44.592 44.808C44.592 44.1787 44.4587 43.6133 44.192 43.112C43.9253 42.6107 43.552 42.2213 43.072 41.944C42.592 41.656 42.0533 41.512 41.456 41.512C40.8587 41.512 40.32 41.6507 39.84 41.928C39.3707 42.2053 39.0027 42.5947 38.736 43.096C38.48 43.5867 38.352 44.152 38.352 44.792C38.352 45.432 38.48 46.0027 38.736 46.504C39.0027 47.0053 39.3707 47.3947 39.84 47.672C40.32 47.9493 40.8587 48.088 41.456 48.088ZM51.7309 48.072C52.2535 48.072 52.7335 47.9813 53.1709 47.8C53.6189 47.608 53.9975 47.3307 54.3069 46.968L54.9469 47.704C54.5735 48.152 54.1095 48.4933 53.5549 48.728C53.0002 48.9627 52.3869 49.08 51.7149 49.08C50.8509 49.08 50.0829 48.8987 49.4109 48.536C48.7389 48.1627 48.2162 47.6507 47.8429 47C47.4695 46.3493 47.2829 45.6133 47.2829 44.792C47.2829 43.9707 47.4589 43.2347 47.8109 42.584C48.1735 41.9333 48.6695 41.4267 49.2989 41.064C49.9282 40.7013 50.6429 40.52 51.4429 40.52C52.1895 40.52 52.8615 40.6907 53.4589 41.032C54.0669 41.3733 54.5469 41.848 54.8989 42.456C55.2615 43.064 55.4535 43.7573 55.4749 44.536L48.5629 45.88C48.7762 46.5627 49.1602 47.1013 49.7149 47.496C50.2802 47.88 50.9522 48.072 51.7309 48.072ZM51.4429 41.496C50.8562 41.496 50.3282 41.6347 49.8589 41.912C49.4002 42.1787 49.0375 42.5573 48.7709 43.048C48.5149 43.528 48.3869 44.0827 48.3869 44.712C48.3869 44.872 48.3922 44.9893 48.4029 45.064L54.3389 43.912C54.2109 43.208 53.8855 42.632 53.3629 42.184C52.8402 41.7253 52.2002 41.496 51.4429 41.496ZM61.3391 49.08C60.5071 49.08 59.7605 48.8987 59.0991 48.536C58.4485 48.1733 57.9365 47.6667 57.5631 47.016C57.1898 46.3547 57.0031 45.6133 57.0031 44.792C57.0031 43.9707 57.1898 43.2347 57.5631 42.584C57.9365 41.9333 58.4485 41.4267 59.0991 41.064C59.7605 40.7013 60.5071 40.52 61.3391 40.52C62.0645 40.52 62.7098 40.664 63.2751 40.952C63.8511 41.2293 64.3045 41.64 64.6351 42.184L63.7871 42.76C63.5098 42.344 63.1578 42.0347 62.7311 41.832C62.3045 41.6187 61.8405 41.512 61.3391 41.512C60.7311 41.512 60.1818 41.6507 59.6911 41.928C59.2111 42.1947 58.8325 42.5787 58.5551 43.08C58.2885 43.5813 58.1551 44.152 58.1551 44.792C58.1551 45.4427 58.2885 46.0187 58.5551 46.52C58.8325 47.0107 59.2111 47.3947 59.6911 47.672C60.1818 47.9387 60.7311 48.072 61.3391 48.072C61.8405 48.072 62.3045 47.9707 62.7311 47.768C63.1578 47.5653 63.5098 47.256 63.7871 46.84L64.6351 47.416C64.3045 47.96 63.8511 48.376 63.2751 48.664C62.6991 48.9413 62.0538 49.08 61.3391 49.08ZM74.3868 40.584V47.976C74.3868 49.4053 74.0614 50.4613 73.4108 51.144C72.7601 51.8373 71.7788 52.184 70.4668 52.184C69.7308 52.184 69.0321 52.0667 68.3708 51.832C67.7201 51.608 67.1921 51.2933 66.7868 50.888L67.3628 50.024C67.7254 50.3867 68.1734 50.6693 68.7068 50.872C69.2401 51.0747 69.8108 51.176 70.4188 51.176C71.3894 51.176 72.1041 50.9253 72.5628 50.424C73.0214 49.9333 73.2508 49.1653 73.2508 48.12V47.144C72.9521 47.6347 72.5414 48.0133 72.0188 48.28C71.5068 48.5467 70.9254 48.68 70.2748 48.68C69.1761 48.68 68.3068 48.376 67.6668 47.768C67.0374 47.1493 66.7228 46.248 66.7228 45.064V40.584H67.8588V44.952C67.8588 45.8373 68.0774 46.5093 68.5148 46.968C68.9521 47.4267 69.5761 47.656 70.3868 47.656C71.2721 47.656 71.9708 47.3893 72.4828 46.856C72.9948 46.312 73.2508 45.56 73.2508 44.6V40.584H74.3868ZM81.4724 40.52C82.2937 40.52 83.0244 40.7013 83.6644 41.064C84.3044 41.4267 84.8004 41.9333 85.1524 42.584C85.515 43.2347 85.6964 43.976 85.6964 44.808C85.6964 45.64 85.5204 46.3813 85.1684 47.032C84.8164 47.672 84.3257 48.1733 83.6964 48.536C83.0777 48.8987 82.3684 49.08 81.5684 49.08C80.8644 49.08 80.235 48.9413 79.6804 48.664C79.1364 48.376 78.6937 47.9653 78.3524 47.432V52.104H77.2164V44.824C77.2164 43.9813 77.3924 43.2347 77.7444 42.584C78.107 41.9333 78.6084 41.4267 79.2484 41.064C79.899 40.7013 80.6404 40.52 81.4724 40.52ZM81.4404 48.088C82.0377 48.088 82.5764 47.9493 83.0564 47.672C83.5364 47.3947 83.9097 47.0053 84.1764 46.504C84.443 46.0027 84.5764 45.4373 84.5764 44.808C84.5764 44.1787 84.443 43.6133 84.1764 43.112C83.9097 42.6107 83.5364 42.2213 83.0564 41.944C82.5764 41.656 82.0377 41.512 81.4404 41.512C80.843 41.512 80.3044 41.6507 79.8244 41.928C79.355 42.2053 78.987 42.5947 78.7204 43.096C78.4644 43.5867 78.3364 44.152 78.3364 44.792C78.3364 45.432 78.4644 46.0027 78.7204 46.504C78.987 47.0053 79.355 47.3947 79.8244 47.672C80.3044 47.9493 80.843 48.088 81.4404 48.088ZM91.6673 49.08C90.8353 49.08 90.0886 48.8987 89.4273 48.536C88.7766 48.1733 88.2646 47.6667 87.8913 47.016C87.5179 46.3547 87.3313 45.6133 87.3313 44.792C87.3313 43.9707 87.5179 43.2347 87.8913 42.584C88.2646 41.9333 88.7766 41.4267 89.4273 41.064C90.0886 40.7013 90.8353 40.52 91.6673 40.52C92.3926 40.52 93.0379 40.664 93.6033 40.952C94.1793 41.2293 94.6326 41.64 94.9633 42.184L94.1153 42.76C93.8379 42.344 93.4859 42.0347 93.0593 41.832C92.6326 41.6187 92.1686 41.512 91.6673 41.512C91.0593 41.512 90.5099 41.6507 90.0193 41.928C89.5393 42.1947 89.1606 42.5787 88.8832 43.08C88.6166 43.5813 88.4833 44.152 88.4833 44.792C88.4833 45.4427 88.6166 46.0187 88.8832 46.52C89.1606 47.0107 89.5393 47.3947 90.0193 47.672C90.5099 47.9387 91.0593 48.072 91.6673 48.072C92.1686 48.072 92.6326 47.9707 93.0593 47.768C93.4859 47.5653 93.8379 47.256 94.1153 46.84L94.9633 47.416C94.6326 47.96 94.1793 48.376 93.6033 48.664C93.0273 48.9413 92.3819 49.08 91.6673 49.08ZM104.67 40.584V49H103.582V47.336C103.241 47.9013 102.788 48.3333 102.222 48.632C101.668 48.9307 101.038 49.08 100.334 49.08C99.5449 49.08 98.8303 48.8987 98.1903 48.536C97.5503 48.1733 97.0489 47.6667 96.6863 47.016C96.3236 46.3653 96.1423 45.624 96.1423 44.792C96.1423 43.96 96.3236 43.2187 96.6863 42.568C97.0489 41.9173 97.5503 41.416 98.1903 41.064C98.8303 40.7013 99.5449 40.52 100.334 40.52C101.017 40.52 101.63 40.664 102.174 40.952C102.729 41.2293 103.182 41.64 103.534 42.184V40.584H104.67ZM100.43 48.072C101.017 48.072 101.545 47.9387 102.014 47.672C102.494 47.3947 102.868 47.0053 103.134 46.504C103.412 46.0027 103.55 45.432 103.55 44.792C103.55 44.152 103.412 43.5813 103.134 43.08C102.868 42.5787 102.494 42.1947 102.014 41.928C101.545 41.6507 101.017 41.512 100.43 41.512C99.8329 41.512 99.2943 41.6507 98.8143 41.928C98.3449 42.1947 97.9716 42.5787 97.6943 43.08C97.4276 43.5813 97.2943 44.152 97.2943 44.792C97.2943 45.432 97.4276 46.0027 97.6943 46.504C97.9716 47.0053 98.3449 47.3947 98.8143 47.672C99.2943 47.9387 99.8329 48.072 100.43 48.072Z" fill="black"/>
</svg>
